<?xml version="1.0" encoding="UTF-8" standalone="no"?>
<!-- Created with Inkscape (http://www.inkscape.org/) -->

<svg
   xmlns:dc="http://purl.org/dc/elements/1.1/"
   xmlns:cc="http://creativecommons.org/ns#"
   xmlns:rdf="http://www.w3.org/1999/02/22-rdf-syntax-ns#"
   xmlns:svg="http://www.w3.org/2000/svg"
   xmlns="http://www.w3.org/2000/svg"
   xmlns:sodipodi="http://sodipodi.sourceforge.net/DTD/sodipodi-0.dtd"
   xmlns:inkscape="http://www.inkscape.org/namespaces/inkscape"
   width="966.41351mm"
   height="157.80496mm"
   viewBox="0 0 966.41351 157.80496"
   version="1.1"
   id="svg866"
   inkscape:version="0.92.5 (0.92.5+68)"
   sodipodi:docname="rkz-bios-ticket-logo.svg">
  <defs
     id="defs860" />
  <sodipodi:namedview
     id="base"
     pagecolor="#ffffff"
     bordercolor="#666666"
     borderopacity="1.0"
     inkscape:pageopacity="0.0"
     inkscape:pageshadow="2"
     inkscape:zoom="0.35"
     inkscape:cx="1392.0076"
     inkscape:cy="52.499818"
     inkscape:document-units="mm"
     inkscape:current-layer="layer1"
     showgrid="false"
     inkscape:pagecheckerboard="true"
     fit-margin-top="0"
     fit-margin-left="0"
     fit-margin-right="0"
     fit-margin-bottom="0"
     inkscape:window-width="1920"
     inkscape:window-height="1103"
     inkscape:window-x="0"
     inkscape:window-y="27"
     inkscape:window-maximized="1" />
  <metadata
     id="metadata863">
    <rdf:RDF>
      <cc:Work
         rdf:about="">
        <dc:format>image/svg+xml</dc:format>
        <dc:type
           rdf:resource="http://purl.org/dc/dcmitype/StillImage" />
        <dc:title></dc:title>
      </cc:Work>
    </rdf:RDF>
  </metadata>
  <g
     inkscape:label="Layer 1"
     inkscape:groupmode="layer"
     id="layer1"
     transform="translate(403.07582,-4.9189484)">
    <path
       style="fill:#000000;stroke-width:0.52448606"
       d="m -140.09772,162.27513 c -7.81124,-0.9841 -14.03526,-3.7407 -18.67785,-8.27234 -1.55229,-1.51519 -3.03245,-2.62504 -3.28923,-2.46635 -0.2568,0.15871 -1.81068,2.16547 -3.45311,4.45948 l -2.98618,4.17091 h -24.26582 c -13.34619,0 -24.37682,-0.17962 -24.51249,-0.39915 -0.29257,-0.47338 55.03836,-152.6435256 55.86541,-153.6400456 0.4526,-0.545349 5.72011,-0.68419 25.95763,-0.68419 22.67271,0 25.42392,0.08882 25.70832,0.829973 0.17516,0.45647 -2.43057,8.4003136 -5.79051,17.6529896 -3.35994,9.252676 -5.98726,16.944796 -5.83843,17.093595 0.14883,0.148829 2.33408,-0.802611 4.85619,-2.114267 9.47563,-4.927965 17.495342,-7.128888 27.663012,-7.591836 11.55647,-0.526167 21.48596,1.517612 26.76385,5.508782 5.59961,4.234506 6.6376,10.195817 3.44027,19.75815 -4.82915,14.442699 -27.21904,75.149749 -29.40291,79.721889 -4.82902,10.10992 -9.09402,14.73371 -17.847842,19.34921 -8.21171,4.32968 -15.67302,6.32471 -25.46009,6.80761 -2.87184,0.14167 -6.80042,0.0587 -8.73022,-0.18441 z m -4.31206,-23.40721 c 3.81866,-1.81208 4.98249,-4.46736 19.5151,-44.524089 11.33041,-31.230321 12.787,-35.99121 11.7248,-38.322451 -1.51688,-3.32921 -9.31799,-3.100909 -12.66211,0.370541 -2.06042,2.138889 -4.30657,7.723201 -16.00349,39.78761 -11.8876,32.587139 -13.81171,38.581779 -13.18357,41.074039 0.73645,2.92209 6.12538,3.74209 10.60927,1.61435 z m 186.146062,23.38022 c -8.00878,-0.48625 -13.54971,-1.33854 -19.03706,-2.92821 -8.83214,-2.55864 -13.7743696,-6.12344 -16.6563896,-12.01408 -1.28162,-2.61955 -1.54893,-3.89243 -1.72194,-8.20029 -0.32864,-8.18234 0.86948,-12.58545 11.0384396,-40.565839 9.90812,-27.262749 11.45623,-30.825559 17.05655,-39.25361 10.26332,-15.445409 29.09779,-25.074756 54.11346,-27.666106 7.40714,-0.767294 23.634698,-0.342738 30.298438,0.792699 10.45218,1.780935 19.8247,5.81814 24.60525,10.59868 1.56742,1.567442 3.48279,4.258421 4.49122,6.310005 1.69781,3.454151 1.7567,3.784531 1.7141,9.614152 -0.0546,7.47192 -0.27209,8.22503 -10.52875,36.45727 -11.69844,32.200829 -14.24728,37.382059 -22.46973,45.675679 -10.17024,10.25828 -21.800878,16.17751 -37.989118,19.33396 -6.41789,1.25138 -20.2302,2.47623 -25.99819,2.30546 -1.44235,-0.0427 -5.45468,-0.24961 -8.91628,-0.45977 z m 21.88096,-22.55934 c 2.87298,-0.79789 4.91686,-2.78943 6.70238,-6.53059 1.64825,-3.45363 25.03572,-67.438031 26.16919,-71.594748 1.03921,-3.811101 0.91081,-5.80712 -0.44405,-6.904221 -1.71402,-1.38793 -5.98559,-1.284361 -8.95133,0.217009 -1.989,1.00693 -2.6516,1.795852 -4.51501,5.375989 -2.77913,5.339623 -26.37041,70.242251 -26.77556,73.663141 -0.16688,1.40904 -0.15534,3.15184 0.0257,3.87288 0.5334,2.12517 3.96502,2.96252 7.78878,1.90054 z m 112.911968,22.60121 c -15.63499,-1.25078 -27.64488,-5.10103 -33.27791,-10.66862 -4.32329,-4.273 -5.51365,-9.04751 -4.24432,-17.02388 0.68551,-4.30753 4.29546,-15.84345 5.58187,-17.83745 l 0.76491,-1.18565 22.66828,0.13674 22.66831,0.13673 -0.0637,1.31122 c -0.0351,0.72117 -1.06342,4.14344 -2.28524,7.60505 -1.37982,3.90929 -2.32473,7.61405 -2.49404,9.77846 -0.26445,3.38036 -0.22794,3.51374 1.21965,4.45812 1.1439,0.74626 2.41435,0.96105 5.44248,0.92013 6.46716,-0.0875 9.4152,-2.19456 12.34792,-8.82603 1.77787,-4.01997 3.01794,-9.48556 2.59212,-11.42434 -0.46542,-2.1191 -2.51812,-3.35535 -19.48791,-11.73663 -15.14644,-7.48074 -22.17375,-11.754069 -25.80203,-15.69031 -3.31534,-3.596719 -3.92951,-5.40748 -3.9129,-11.536238 0.0119,-4.636741 0.23754,-5.905032 1.94077,-10.938801 3.44242,-10.173981 8.70075,-18.947916 14.32648,-23.905036 9.89512,-8.718941 27.80969,-13.906497 50.26802,-14.556159 27.23552,-0.787863 44.98592,4.820755 50.4221,15.931929 1.22063,2.494907 1.35192,3.262511 1.09082,6.377014 -0.27786,3.314761 -3.52689,14.094201 -5.55704,18.437032 l -0.8581,1.835711 -22.94228,0.136578 c -26.50948,0.15789 -23.96937,0.884999 -21.38588,-6.1218 2.12643,-5.76722 3.29393,-10.471599 2.94442,-11.864268 -0.73078,-2.911523 -8.28966,-3.190454 -12.70595,-0.468871 -2.03735,1.25557 -2.88084,2.247929 -4.21685,4.961279 -1.905,3.868801 -3.12095,9.074639 -2.60237,11.141001 0.91078,3.628689 7.58429,7.64032 26.71414,16.05861 14.44686,6.357501 21.00207,11.307199 22.6972,17.138239 1.81435,6.24122 -0.28985,15.99163 -5.83763,27.05056 -3.11195,6.20324 -4.87805,8.79065 -8.85103,12.96682 -8.2704,8.69346 -21.33307,14.26286 -38.88872,16.58065 -7.2978,0.9635 -21.38815,1.37328 -28.27558,0.82229 z m -579.59527,-2.29564 c -0.2847,-0.74191 5.74594,-17.94918 6.68884,-19.0853 0.44053,-0.53081 6.06994,-0.6727 26.68741,-0.6727 14.37103,0 26.23777,0.17701 26.37055,0.39336 0.34117,0.5559 -6.47908,19.1925 -7.19484,19.66019 -0.32434,0.21195 -12.22104,0.38896 -26.43711,0.39338 -21.01737,0.006 -25.89738,-0.12226 -26.11485,-0.68893 z m 94.48622,0.23816 c -0.15595,-0.25234 1.30741,-4.79569 3.25191,-10.09636 l 3.53546,-9.63757 26.61284,-0.13584 c 21.11461,-0.10777 26.61347,5.3e-4 26.61589,0.52448 0.004,0.91082 -6.33414,18.33733 -6.9647,19.14854 -0.39555,0.5089 -6.35686,0.65562 -26.63873,0.65562 -14.37102,0 -26.25672,-0.20646 -26.41267,-0.4588 z m 573.77352,-0.0231 c -0.27556,-0.44586 5.34138,-16.70358 6.55341,-18.96827 0.51883,-0.96946 1.45818,-1.00479 26.71265,-1.00479 14.84469,0 26.30051,0.20327 26.46511,0.46959 0.25149,0.40686 -4.04757,12.93567 -6.23498,18.17098 l -0.75809,1.81437 H 291.7116 c -15.3688,0 -26.34337,-0.19943 -26.51792,-0.48189 z m 94.4703,0.0885 c -0.2913,-0.48756 6.20284,-18.32466 7.03808,-19.33106 0.91313,-1.10023 52.2977,-1.08801 52.72003,0.0119 0.24865,0.64797 -1.55946,6.08502 -5.55242,16.6961 l -1.13482,3.01579 h -26.41791 c -14.52988,0 -26.52368,-0.17702 -26.65296,-0.39337 z m 94.58063,-0.11957 c 0,-1.24714 6.80347,-19.08531 7.43077,-19.48297 0.899,-0.56991 51.35277,-0.58326 52.25029,-0.0134 0.52266,0.33159 -0.0451,2.42616 -2.4965,9.21466 -1.74506,4.83204 -3.41487,9.23769 -3.71065,9.79032 -0.51893,0.96971 -1.46246,1.00482 -27.00581,1.00482 -16.8996,0 -26.4681,-0.18544 -26.4681,-0.51297 z m -532.759868,-0.92461 c 0.40551,-1.54038 45.07865,-124.108706 45.59396,-125.094687 0.44733,-0.855919 2.28825,-0.917852 27.2786704,-0.917852 H 21.156332 l -0.31345,1.704578 c -0.17241,0.937514 -10.41649,29.436774 -22.7646696,63.331696 l -22.4512504,61.627115 -27.19255,0.13585 c -25.73105,0.12852 -27.17948,0.0863 -26.94967,-0.78673 z M 67.182822,25.516343 c 0.006,-0.511046 1.60473,-5.295512 3.55508,-10.632163 l 3.54605,-9.7029836 18.86675,0.01045 c 19.009008,0.01045 21.661328,0.231019 24.084088,2.002579 2.7322,1.9978621 -0.033,6.6848216 -4.37718,7.4187506 -2.48828,0.420375 -2.77429,1.050184 -0.712,1.567783 3.13468,0.786772 3.41413,2.025612 1.54538,6.852025 l -1.21108,3.127908 -9.27864,0.143156 c -10.509228,0.162233 -9.989608,0.427526 -8.229918,-4.202351 0.57676,-1.517552 1.04881,-3.167721 1.04899,-3.667048 0,-1.027405 -1.73873,-1.621508 -3.98732,-1.362156 -1.35401,0.156172 -1.64277,0.584012 -3.12552,4.630205 l -1.63359,4.458135 -10.05007,0.142409 c -9.32484,0.132109 -10.04935,0.07538 -10.04102,-0.786728 z m 30.93572,-13.254596 c 1.2578,-1.257796 1.36607,-2.9129955 0.21931,-3.3530454 -0.45627,-0.175101 -1.64838,-0.3183462 -2.64914,-0.3183462 -1.58056,0 -1.91942,0.2389161 -2.57953,1.8188506 -1.1168,2.672767 -0.99062,2.901517 1.6002,2.901517 1.66087,0 2.671,-0.310806 3.40916,-1.048976 z m 58.226928,13.254596 c 0.006,-0.511046 1.60409,-5.295512 3.5536,-10.632163 l 3.54467,-9.7029836 10.08298,-0.142409 c 7.49581,-0.105837 10.08304,0.01687 10.08304,0.478384 0,0.341468 -0.39624,1.877814 -0.88049,3.4141301 -0.48426,1.5363015 -0.73906,2.9347315 -0.5662,3.1076375 0.17293,0.172875 2.73179,-1.358379 5.68645,-3.4028006 l 5.37197,-3.717145 h 8.87446 c 6.81588,0 8.82433,0.15047 8.65828,0.648663 -0.11882,0.356769 -2.91179,2.3552579 -6.20638,4.4411016 -3.29462,2.08583 -6.19877,4.112473 -6.45361,4.50362 -0.32385,0.497013 0.59383,2.172439 3.04736,5.563566 1.93096,2.668796 3.64178,5.193735 3.80191,5.610961 0.24902,0.648991 -1.21428,0.738019 -10.12799,0.616181 l -10.41903,-0.14241 -1.92915,-3.671406 c -1.06103,-2.019268 -2.2302,-3.671392 -2.59818,-3.671392 -0.36799,0 -1.29704,1.652124 -2.0645,3.671392 l -1.39541,3.671406 -10.03636,0.14241 c -9.31182,0.132109 -10.03578,0.07538 -10.02742,-0.786728 z m 84.95777,0.236512 c 0,-1.481188 1.89481,-3.073707 10.9829,-9.230734 5.21954,-3.536147 9.35406,-6.6493976 9.18784,-6.9183175 -0.16621,-0.2689349 -2.88446,-0.4889669 -6.04057,-0.4889669 -6.20916,0 -6.38749,-0.09942 -5.12971,-2.8600042 l 0.60865,-1.335884 h 17.74835 c 9.76157,0 17.74836,0.200791 17.74836,0.446215 0,0.245425 -0.26564,1.208208 -0.59031,2.139525 -0.48599,1.3942201 -2.19986,2.7476876 -9.70302,7.6627706 -5.01197,3.2832 -9.11267,6.214722 -9.11267,6.514498 0,0.346618 2.27989,0.545035 6.2629,0.545035 3.44456,0 6.39194,0.208897 6.54979,0.464233 0.1578,0.255336 0.0305,1.1994 -0.2826,2.097951 l -0.56955,1.633703 h -18.83015 c -14.93065,0 -18.83021,-0.138826 -18.83021,-0.670024 z m -270.811948,-0.24308 c -0.31305,-0.508926 6.10161,-18.2026086 6.98511,-19.2671686 0.57788,-0.696311 4.02209,-0.799177 26.7591404,-0.799177 20.2495696,0 26.2123696,0.146887 26.6160496,0.655604 0.3634,0.458008 -0.52732,3.501217 -2.95505,10.0963686 l -3.47525,9.440749 -26.8425596,0.135841 C -17.184678,25.846782 -29.374008,25.728702 -29.508708,25.50976 Z m 438.411598,-0.0933 c -0.27557,-0.445857 5.34138,-16.7035805 6.55341,-18.9682726 0.51882,-0.969472 1.45817,-1.004805 26.71265,-1.004805 15.34131,0 26.29815,0.199447 26.4727,0.481892 0.27556,0.445842 -5.34138,16.7035656 -6.55341,18.9682726 -0.5188,0.969457 -1.45817,1.00479 -26.71265,1.00479 -15.34134,0 -26.29816,-0.199447 -26.4727,-0.481877 z m 94.64341,-0.384191 c 0,-1.134421 6.16175,-18.0110576 6.90129,-18.9021286 0.45582,-0.549215 5.80895,-0.686758 26.73001,-0.686758 24.98563,0 26.16012,0.04299 26.16012,0.958335 0,0.889191 -3.31187,10.3766486 -5.84465,16.7430796 l -1.09551,2.75354 h -26.4256 c -24.21572,0 -26.42566,-0.0724 -26.42566,-0.866068 z m -857.53479,-0.523806 c 0,-1.109044 6.20106,-18.0539296 6.92894,-18.9339106 0.42048,-0.508313 6.36405,-0.655604 26.45661,-0.655604 22.49174,0 25.95396,0.103299 26.21464,0.782698 0.1652,0.430481 -1.22811,4.9738376 -3.09623,10.0963536 l -3.39658,9.313656 -26.55369,0.13599 c -24.49909,0.125392 -26.55369,0.06822 -26.55369,-0.739124 z m 94.40749,0.383474 c 0,-1.168232 6.88278,-19.1653166 7.47283,-19.5399696 0.88873,-0.564277 51.34623,-0.534601 52.23827,0.03075 0.56273,0.3566201 0.0378,2.3020561 -2.58053,9.5638426 -1.80783,5.013888 -3.51172,9.411178 -3.78644,9.771754 -0.38793,0.509209 -6.39998,0.655619 -26.9218,0.655619 -15.71096,-1.5e-5 -26.42233,-0.195402 -26.42233,-0.481982 z m 573.78478,-0.168831 c -0.006,-1.402386 6.48149,-18.5278346 7.25442,-19.1485536 0.62802,-0.504328 6.70854,-0.655604 26.35176,-0.655604 19.80118,0 25.65215,0.147186 26.05553,0.655604 0.36341,0.457993 -0.52726,3.501218 -2.95505,10.0963536 l -3.47525,9.44075 -26.61417,0.13599 c -21.11568,0.107777 -26.61484,-5.02e-4 -26.61724,-0.52448 z"
       id="path1500"
       inkscape:connector-curvature="0" />
  </g>
</svg>
