<?xml version="1.0" encoding="UTF-8" standalone="no"?>
<svg
   xmlns:dc="http://purl.org/dc/elements/1.1/"
   xmlns:cc="http://creativecommons.org/ns#"
   xmlns:rdf="http://www.w3.org/1999/02/22-rdf-syntax-ns#"
   xmlns:svg="http://www.w3.org/2000/svg"
   xmlns="http://www.w3.org/2000/svg"
   xmlns:sodipodi="http://sodipodi.sourceforge.net/DTD/sodipodi-0.dtd"
   xmlns:inkscape="http://www.inkscape.org/namespaces/inkscape"
   width="169.97475pt"
   height="169.97496pt"
   viewBox="0 0 169.97474 169.97496"
   version="1.1"
   id="svg2137"
   sodipodi:docname="kijkwijzer-18.svg"
   inkscape:version="0.92.5 (0.92.5+68)">
  <metadata
     id="metadata2143">
    <rdf:RDF>
      <cc:Work
         rdf:about="">
        <dc:format>image/svg+xml</dc:format>
        <dc:type
           rdf:resource="http://purl.org/dc/dcmitype/StillImage" />
        <dc:title />
      </cc:Work>
    </rdf:RDF>
  </metadata>
  <defs
     id="defs2141" />
  <sodipodi:namedview
     pagecolor="#ffffff"
     bordercolor="#666666"
     borderopacity="1"
     objecttolerance="10"
     gridtolerance="10"
     guidetolerance="10"
     inkscape:pageopacity="0"
     inkscape:pageshadow="2"
     inkscape:window-width="1920"
     inkscape:window-height="1103"
     id="namedview2139"
     showgrid="false"
     inkscape:pagecheckerboard="true"
     fit-margin-top="0"
     fit-margin-left="0"
     fit-margin-right="0"
     fit-margin-bottom="0"
     inkscape:zoom="0.91237113"
     inkscape:cx="278.22015"
     inkscape:cy="-0.14310271"
     inkscape:window-x="0"
     inkscape:window-y="27"
     inkscape:window-maximized="1"
     inkscape:current-layer="svg2137" />
  <path
     style="opacity:1;fill:#00ff99;fill-opacity:1;stroke:#00ff99;stroke-width:7.23962212;stroke-linecap:round;stroke-linejoin:round;stroke-miterlimit:4;stroke-dasharray:none;stroke-dashoffset:0;stroke-opacity:1"
     d="M 111.08594 3.6425781 A 109.6966 109.6966 0 0 0 3.6308594 114.80273 A 109.6966 109.6966 0 0 0 114.06055 223.01172 A 109.6966 109.6966 0 0 0 223.01367 113.31641 L 177.16797 113.31641 L 177.16797 167.73047 L 162.62109 182.06836 L 116.46875 182.06836 L 101.91406 167.21289 L 101.91406 112.85742 L 110.07617 104.34961 L 101.91406 96.021484 L 101.91406 56.771484 L 116.20508 41.964844 L 162.62109 41.964844 L 177.16797 56.255859 L 177.16797 96.539062 L 169.13477 104.44141 L 176.42188 111.60547 L 222.97266 110.34375 A 109.6966 109.6966 0 0 0 111.08594 3.6425781 z M 63.537109 41.964844 L 84.90625 41.964844 L 84.90625 182.06836 L 57.488281 182.06836 L 57.488281 63.810547 L 40.003906 63.810547 L 40.003906 50.212891 L 63.537109 41.964844 z M 129.58984 65.5 L 129.58984 98.050781 L 149.9707 98.050781 L 149.9707 65.5 L 129.58984 65.5 z M 129.58984 121.57812 L 129.58984 158.27734 L 149.9707 158.27734 L 149.9707 121.57812 L 129.58984 121.57812 z "
     transform="scale(0.74999998)"
     id="path2695"
     inkscape:export-filename="/home/roho/projects/rkzbios/rkzbios-website/static/images/kijkwijzer-18.png"
     inkscape:export-xdpi="50.830757"
     inkscape:export-ydpi="50.830757" />
</svg>
