<?xml version="1.0" encoding="UTF-8" standalone="no"?>
<!-- Created with Inkscape (http://www.inkscape.org/) -->

<svg
   xmlns:dc="http://purl.org/dc/elements/1.1/"
   xmlns:cc="http://creativecommons.org/ns#"
   xmlns:rdf="http://www.w3.org/1999/02/22-rdf-syntax-ns#"
   xmlns:svg="http://www.w3.org/2000/svg"
   xmlns="http://www.w3.org/2000/svg"
   xmlns:sodipodi="http://sodipodi.sourceforge.net/DTD/sodipodi-0.dtd"
   xmlns:inkscape="http://www.inkscape.org/namespaces/inkscape"
   width="1074.2411mm"
   height="739.72247mm"
   viewBox="0 0 1074.2411 739.72247"
   version="1.1"
   id="svg890"
   sodipodi:docname="rkzbios-logo.svg"
   inkscape:version="0.92.5 (0.92.5+68)">
  <defs
     id="defs884" />
  <sodipodi:namedview
     id="base"
     pagecolor="#ffffff"
     bordercolor="#666666"
     borderopacity="1.0"
     inkscape:pageopacity="0.0"
     inkscape:pageshadow="2"
     inkscape:zoom="0.0875"
     inkscape:cx="225.40695"
     inkscape:cy="3103.0451"
     inkscape:document-units="mm"
     inkscape:current-layer="layer1"
     showgrid="false"
     showborder="false"
     inkscape:pagecheckerboard="true"
     inkscape:window-width="1920"
     inkscape:window-height="1103"
     inkscape:window-x="0"
     inkscape:window-y="27"
     inkscape:window-maximized="1"
     fit-margin-top="0"
     fit-margin-left="0"
     fit-margin-right="0"
     fit-margin-bottom="0" />
  <metadata
     id="metadata887">
    <rdf:RDF>
      <cc:Work
         rdf:about="">
        <dc:format>image/svg+xml</dc:format>
        <dc:type
           rdf:resource="http://purl.org/dc/dcmitype/StillImage" />
        <dc:title></dc:title>
      </cc:Work>
    </rdf:RDF>
  </metadata>
  <g
     inkscape:label="Layer 1"
     inkscape:groupmode="layer"
     id="layer1"
     transform="translate(251.88537,-51.953868)">
    <path
       style="fill:#000000;stroke-width:0.52448606"
       d="m 118.92034,209.31005 c -7.81124,-0.9841 -14.03526,-3.7407 -18.67785,-8.27234 -1.552292,-1.51519 -3.03245,-2.62504 -3.289234,-2.46635 -0.256799,0.15871 -1.810685,2.16547 -3.453106,4.45948 l -2.986187,4.17091 H 66.248148 c -13.346191,0 -24.376817,-0.17962 -24.512494,-0.39915 -0.292566,-0.47338 55.038366,-152.643526 55.865414,-153.640046 0.452604,-0.545349 5.720112,-0.68419 25.957642,-0.68419 22.67269,0 25.4239,0.08882 25.7083,0.829973 0.17516,0.45647 -2.43057,8.400313 -5.79051,17.65299 -3.35994,9.252677 -5.98724,16.944796 -5.83843,17.093594 0.14883,0.148828 2.33409,-0.802611 4.8562,-2.114267 9.47563,-4.927965 17.49534,-7.128886 27.66301,-7.591835 11.55647,-0.526167 21.48596,1.517612 26.76383,5.508782 5.59962,4.234505 6.63761,10.195816 3.44028,19.758149 -4.82914,14.4427 -27.21904,75.14975 -29.40291,79.72189 -4.82901,10.10992 -9.09401,14.73371 -17.84783,19.34921 -8.21172,4.32968 -15.67301,6.32471 -25.46008,6.80761 -2.87184,0.14167 -6.80043,0.0587 -8.73023,-0.18441 z m -4.31206,-23.40721 c 3.81866,-1.81208 4.98249,-4.46736 19.5151,-44.52409 11.3304,-31.23032 12.78699,-35.99121 11.7248,-38.32245 -1.51688,-3.329211 -9.318,-3.100908 -12.66212,0.37054 -2.06042,2.13889 -4.30656,7.7232 -16.00348,39.78761 -11.8876,32.58714 -13.81171,38.58178 -13.18357,41.07404 0.73645,2.92209 6.12538,3.74209 10.60927,1.61435 z m 186.14605,23.38022 c -8.00878,-0.48625 -13.5497,-1.33854 -19.03705,-2.92821 -8.83213,-2.55864 -13.77437,-6.12344 -16.65641,-12.01408 -1.2816,-2.61955 -1.5489,-3.89243 -1.72192,-8.20029 -0.32865,-8.18234 0.86948,-12.58545 11.03843,-40.56584 9.90813,-27.26275 11.45624,-30.82556 17.05657,-39.25361 10.26331,-15.44541 29.09779,-25.074754 54.11344,-27.666106 7.40715,-0.767293 23.63471,-0.342737 30.29845,0.792699 10.45217,1.780934 19.82469,5.818141 24.60523,10.598681 1.56742,1.56744 3.48279,4.258419 4.49123,6.310005 1.6978,3.454151 1.7567,3.784531 1.71412,9.614151 -0.0546,7.47192 -0.2721,8.22503 -10.52875,36.45727 -11.69846,32.20083 -14.24729,37.38206 -22.46976,45.67568 -10.17022,10.25828 -21.80086,16.17751 -37.98911,19.33396 -6.41788,1.25138 -20.2302,2.47623 -25.9982,2.30546 -1.44233,-0.0427 -5.45466,-0.24961 -8.91627,-0.45977 z m 21.88098,-22.55934 c 2.87298,-0.79789 4.91685,-2.78943 6.70237,-6.53059 1.64824,-3.45363 25.0357,-67.43803 26.16918,-71.59475 1.03921,-3.8111 0.91082,-5.80712 -0.44403,-6.90422 -1.71403,-1.38793 -5.9856,-1.28436 -8.95135,0.21701 -1.98901,1.00693 -2.6516,1.79585 -4.515,5.37599 -2.77914,5.33962 -26.37042,70.24225 -26.77557,73.66314 -0.16688,1.40904 -0.15535,3.15184 0.0257,3.87288 0.53338,2.12517 3.96502,2.96252 7.78878,1.90054 z m 112.91195,22.60121 c -15.63498,-1.25078 -27.64487,-5.10103 -33.27791,-10.66862 -4.32328,-4.273 -5.51366,-9.04751 -4.2443,-17.02388 0.68551,-4.30753 4.29544,-15.84345 5.58184,-17.83745 l 0.76492,-1.18565 22.66828,0.13674 22.6683,0.13673 -0.0637,1.31122 c -0.0351,0.72117 -1.0634,4.14344 -2.28523,7.60505 -1.37984,3.90929 -2.32474,7.61405 -2.49404,9.77846 -0.26445,3.38036 -0.22795,3.51374 1.21964,4.45812 1.1439,0.74626 2.41435,0.96105 5.44249,0.92013 6.46716,-0.0875 9.41519,-2.19456 12.34792,-8.82603 1.77785,-4.01997 3.01794,-9.48556 2.59212,-11.42434 -0.46543,-2.1191 -2.51812,-3.35535 -19.48792,-11.73663 -15.14643,-7.48074 -22.17375,-11.75407 -25.80204,-15.69031 -3.31533,-3.59672 -3.92951,-5.40748 -3.91288,-11.53624 0.0119,-4.63674 0.23754,-5.90503 1.94076,-10.9388 3.44241,-10.17398 8.70075,-18.947915 14.32649,-23.905034 9.89511,-8.718942 27.80967,-13.906497 50.26801,-14.55616 27.23552,-0.787863 44.98591,4.820755 50.4221,15.93193 1.22064,2.494905 1.35192,3.262511 1.09083,6.377014 -0.27787,3.31476 -3.52691,14.0942 -5.55704,18.43703 l -0.85811,1.83571 -22.94228,0.13658 c -26.50947,0.15789 -23.96938,0.885 -21.38587,-6.1218 2.12642,-5.76722 3.29393,-10.4716 2.94442,-11.86427 -0.73078,-2.91152 -8.28967,-3.190452 -12.70595,-0.46887 -2.03736,1.25557 -2.88084,2.24793 -4.21686,4.96128 -1.90499,3.8688 -3.12095,9.07464 -2.60235,11.141 0.91077,3.62869 7.58428,7.64032 26.71413,16.05861 14.44686,6.3575 21.00205,11.3072 22.69718,17.13824 1.81436,6.24122 -0.28983,15.99163 -5.83763,27.05056 -3.11193,6.20324 -4.87804,8.79065 -8.85101,12.96682 -8.27041,8.69346 -21.33306,14.26286 -38.88872,16.58065 -7.29779,0.9635 -21.38817,1.37328 -28.27557,0.82229 z M -144.048,207.02929 c -0.2847,-0.74191 5.74594,-17.94918 6.68884,-19.0853 0.44053,-0.53081 6.06994,-0.6727 26.68741,-0.6727 14.371029,0 26.237763,0.17701 26.370544,0.39336 0.341169,0.5559 -6.479075,19.1925 -7.194837,19.66019 -0.324346,0.21195 -12.221037,0.38896 -26.437107,0.39338 -21.01737,0.006 -25.89738,-0.12226 -26.11485,-0.68893 z m 94.486216,0.23816 c -0.15595,-0.25234 1.307408,-4.79569 3.251914,-10.09636 l 3.535461,-9.63757 26.612839,-0.13584 c 21.1146051,-0.10777 26.613469,5.1e-4 26.615892,0.52448 0.0042,0.91082 -6.334144,18.33733 -6.9647026,19.14854 -0.3955569,0.5089 -6.3568654,0.65562 -26.6387284,0.65562 -14.37102,0 -26.256724,-0.20646 -26.412675,-0.4588 z m 573.773524,-0.0231 c -0.27556,-0.44586 5.34137,-16.70358 6.5534,-18.96827 0.51882,-0.96946 1.45819,-1.00479 26.71266,-1.00479 14.84469,0 26.30051,0.20327 26.46509,0.46959 0.2515,0.40686 -4.04755,12.93567 -6.23498,18.17098 l -0.75809,1.81437 h -26.22017 c -15.3688,0 -26.34336,-0.19943 -26.51791,-0.48189 z m 94.47029,0.0885 c -0.2913,-0.48756 6.20284,-18.32466 7.03808,-19.33106 0.91312,-1.10023 52.29771,-1.08801 52.72002,0.0119 0.24867,0.64797 -1.55945,6.08501 -5.55241,16.69609 l -1.13483,3.01579 H 645.335 c -14.5299,0 -26.52369,-0.17701 -26.65297,-0.39336 z m 94.58062,-0.11957 c 0,-1.24714 6.80348,-19.0853 7.43077,-19.48297 0.89901,-0.56991 51.35279,-0.58326 52.2503,-0.0134 0.52266,0.33159 -0.0451,2.42616 -2.4965,9.21466 -1.74507,4.83204 -3.41488,9.23769 -3.71064,9.79032 -0.51893,0.96971 -1.46247,1.00482 -27.00583,1.00482 -16.89958,0 -26.4681,-0.18544 -26.4681,-0.51297 z m -532.75984,-0.92461 c 0.40549,-1.54038 45.07865,-124.108699 45.59395,-125.09468 0.44733,-0.855918 2.28823,-0.917852 27.27866,-0.917852 h 26.79896 l -0.31345,1.704579 c -0.17239,0.937512 -10.41649,29.436773 -22.76468,63.331693 l -22.45123,61.62711 -27.19255,0.13585 c -25.73105,0.12852 -27.17949,0.0863 -26.94966,-0.78673 z M 326.20088,72.551263 c 0.006,-0.511046 1.60472,-5.295512 3.55507,-10.632164 l 3.54606,-9.702983 18.86675,0.01045 c 19.00901,0.01045 21.66132,0.231019 24.08408,2.002579 2.73221,1.997862 -0.033,6.684821 -4.37719,7.41875 -2.48827,0.420376 -2.77428,1.050185 -0.71199,1.567784 3.13469,0.786772 3.41413,2.025612 1.54539,6.852025 l -1.21109,3.127908 -9.27863,0.143156 c -10.50924,0.162233 -9.98962,0.427526 -8.22992,-4.202351 0.57677,-1.517552 1.04881,-3.167721 1.04898,-3.667048 3.1e-4,-1.027405 -1.73873,-1.621508 -3.98731,-1.362156 -1.35402,0.156172 -1.64279,0.584012 -3.12552,4.630205 l -1.63361,4.458135 -10.05005,0.142409 c -9.32484,0.132109 -10.04936,0.07538 -10.04102,-0.786728 z m 30.93571,-13.254596 c 1.25782,-1.257797 1.36607,-2.912996 0.21933,-3.353046 -0.45629,-0.175101 -1.6484,-0.318346 -2.64916,-0.318346 -1.58055,0 -1.91942,0.238916 -2.57953,1.81885 -1.11679,2.672768 -0.99061,2.901518 1.6002,2.901518 1.66089,0 2.671,-0.310807 3.40916,-1.048976 z m 58.22693,13.254596 c 0.006,-0.511046 1.60409,-5.295512 3.5536,-10.632164 l 3.54468,-9.702983 10.08298,-0.142409 c 7.49581,-0.105837 10.08304,0.01687 10.08304,0.478384 0,0.341468 -0.39625,1.877814 -0.8805,3.41413 -0.48427,1.536301 -0.73905,2.934731 -0.56619,3.107637 0.17292,0.172876 2.73179,-1.358379 5.68644,-3.4028 l 5.37198,-3.717145 h 8.87447 c 6.81586,0 8.82432,0.15047 8.65827,0.648663 -0.11883,0.356769 -2.91179,2.355258 -6.2064,4.441102 -3.29462,2.08583 -6.19875,4.112472 -6.45359,4.503619 -0.32387,0.497014 0.59382,2.17244 3.04736,5.563567 1.93096,2.668796 3.64178,5.193735 3.8019,5.610961 0.24903,0.648991 -1.21429,0.738019 -10.12798,0.616181 l -10.41903,-0.14241 -1.92916,-3.671406 c -1.06104,-2.019268 -2.23021,-3.671392 -2.59819,-3.671392 -0.36798,0 -1.29702,1.652124 -2.06449,3.671392 l -1.3954,3.671406 -10.03636,0.14241 c -9.31182,0.132109 -10.03577,0.07538 -10.02743,-0.786728 z m 84.95778,0.236512 c 0,-1.481188 1.89481,-3.073707 10.9829,-9.230734 5.21953,-3.536148 9.35405,-6.649398 9.18783,-6.918318 -0.1662,-0.268935 -2.88445,-0.488967 -6.04055,-0.488967 -6.20918,0 -6.38751,-0.09942 -5.12974,-2.860004 l 0.60867,-1.335884 h 17.74835 c 9.76157,0 17.74835,0.200791 17.74835,0.446215 0,0.245425 -0.26565,1.208208 -0.59031,2.139525 -0.486,1.39422 -2.19986,2.747688 -9.703,7.662771 -5.01199,3.2832 -9.11269,6.214722 -9.11269,6.514498 0,0.346618 2.27989,0.545035 6.2629,0.545035 3.44457,0 6.39195,0.208897 6.54978,0.464233 0.15782,0.255336 0.0305,1.1994 -0.28259,2.097951 l -0.56955,1.633703 H 519.1515 c -14.93064,0 -18.8302,-0.138826 -18.8302,-0.670024 z m -270.81195,-0.24308 c -0.31306,-0.508926 6.1016,-18.202609 6.9851,-19.267169 0.57789,-0.696311 4.0221,-0.799177 26.75913,-0.799177 20.24959,0 26.2124,0.146887 26.61607,0.655604 0.3634,0.458008 -0.52732,3.501217 -2.95506,10.096369 l -3.47526,9.440749 -26.84254,0.135841 c -14.76342,0.07479 -26.95275,-0.04329 -27.08744,-0.262232 z m 438.41159,-0.0933 c -0.27556,-0.445857 5.34137,-16.703581 6.5534,-18.968273 0.51882,-0.969472 1.45817,-1.004805 26.71265,-1.004805 15.34132,0 26.29816,0.199447 26.47271,0.481892 0.27556,0.445842 -5.34137,16.703566 -6.55341,18.968273 -0.51881,0.969457 -1.45817,1.00479 -26.71266,1.00479 -15.34132,0 -26.29814,-0.199447 -26.47269,-0.481877 z m 94.64341,-0.384191 c 0,-1.134421 6.16176,-18.011058 6.90129,-18.902129 0.45583,-0.549215 5.80895,-0.686758 26.73001,-0.686758 24.98564,0 26.16011,0.04299 26.16011,0.958335 0,0.889191 -3.31186,10.376649 -5.84465,16.74308 l -1.0955,2.75354 h -26.4256 c -24.21573,0 -26.42566,-0.0724 -26.42566,-0.866068 z M -94.970436,71.543398 c 0,-1.109044 6.201064,-18.05393 6.928947,-18.933911 0.42048,-0.508313 6.364043,-0.655604 26.456601,-0.655604 22.491747,0 25.953969,0.103299 26.21465,0.782698 0.165193,0.430481 -1.228111,4.973837 -3.09623,10.096354 l -3.396578,9.313656 -26.553698,0.13599 c -24.49909,0.125392 -26.553692,0.06822 -26.553692,-0.739124 z m 94.4074983,0.383474 c 0,-1.168232 6.8827727,-19.165317 7.4728299,-19.53997 0.8887265,-0.564277 51.3462268,-0.534601 52.2382688,0.03075 0.562725,0.35662 0.03777,2.302056 -2.58053,9.563843 -1.807833,5.013888 -3.511726,9.411178 -3.786439,9.771754 -0.387937,0.509209 -6.399988,0.655619 -26.921804,0.655619 -15.710956,-1.5e-5 -26.4223257,-0.195402 -26.4223257,-0.481982 z M 573.22182,71.758041 c -0.006,-1.402386 6.48151,-18.527835 7.25444,-19.148554 0.62802,-0.504328 6.70854,-0.655604 26.35175,-0.655604 19.80119,0 25.65214,0.147186 26.05553,0.655604 0.36341,0.457993 -0.52727,3.501218 -2.95506,10.096354 l -3.47525,9.44075 -26.61416,0.13599 c -21.11569,0.107777 -26.61483,-5.07e-4 -26.61725,-0.52448 z"
       id="path1500"
       inkscape:connector-curvature="0" />
    <path
       style="fill:#000000;stroke-width:1.98230958"
       d="m 248.02734,1483.4316 c -76.48826,0 -96.3968,0.5248 -98.10742,2.586 -3.12586,3.7664 -212.250306,578.8964 -211.144529,580.6855 0.512768,0.8297 42.202238,1.5098 92.644531,1.5098 h 91.714848 l 11.28515,-15.7656 c 6.20761,-8.6703 12.0802,-16.2537 13.05078,-16.8535 0.97051,-0.5998 6.56667,3.5936 12.4336,9.3203 17.54679,17.1274 41.069,27.5462 70.59179,31.2656 7.29374,0.9188 22.1419,1.2327 32.9961,0.6973 36.9905,-1.8252 65.19213,-9.3644 96.22851,-25.7286 33.08531,-17.4444 49.20367,-34.9201 67.45508,-73.1308 8.254,-17.2806 92.877,-246.726 111.12891,-301.3125 12.08439,-36.1411 8.16192,-58.6714 -13.00196,-74.6758 -19.94793,-15.0847 -57.4763,-22.809 -101.15429,-20.8203 -38.42899,1.7497 -68.73933,10.0679 -104.55274,28.6933 -9.53238,4.9575 -17.79296,8.5528 -18.35547,7.9903 -0.5625,-0.5624 9.36742,-29.6347 22.06641,-64.6055 12.69899,-34.9707 22.54874,-64.9935 21.88672,-66.7187 -1.0749,-2.8013 -11.47388,-3.1368 -97.16602,-3.1368 z m 64.70704,182.2051 c 8.94368,0.1118 16.84972,3.0569 19.5371,8.9551 4.01462,8.811 -1.49085,26.8039 -44.31445,144.8398 -54.9264,151.3955 -59.32508,161.4325 -73.75781,168.2813 -16.94699,8.0418 -37.31422,4.9425 -40.09766,-6.1016 -2.37407,-9.4195 4.89862,-32.0763 49.82813,-155.2402 44.20883,-121.1883 52.69696,-142.295 60.48437,-150.3789 6.71457,-6.9702 18.18414,-10.4822 28.32032,-10.3555 z"
       transform="scale(0.26458333)"
       id="path1618"
       inkscape:connector-curvature="0" />
    <path
       style="fill:#000000;stroke-width:1.98230958"
       d="m 1128.9355,1580.9082 c -16.2101,-0.084 -31.3962,0.3695 -41.8945,1.457 -94.5474,9.7941 -165.73292,46.1901 -204.52342,104.5664 -21.16657,31.8541 -27.01879,45.3191 -64.4668,148.3594 -38.43386,105.7526 -42.96281,122.3949 -41.7207,153.3203 0.65389,16.2817 1.66585,21.0916 6.50976,30.9922 10.89268,22.2639 29.57181,35.7378 62.95313,45.4082 20.73959,6.0082 41.68177,9.2286 71.95117,11.0664 13.08321,0.7943 28.24782,1.5769 33.69922,1.7383 21.80028,0.6454 74.00314,-3.9833 98.25974,-8.7129 61.1839,-11.9299 105.1434,-34.3028 143.5821,-73.0742 31.0769,-31.346 40.7092,-50.9289 84.9238,-172.6328 38.7653,-106.7045 39.5885,-109.5507 39.7949,-137.791 0.161,-22.0333 -0.062,-23.2809 -6.4785,-36.336 -3.8114,-7.754 -11.0505,-17.9254 -16.9746,-23.8496 -18.0682,-18.0682 -53.4918,-33.3275 -92.9961,-40.0586 -15.7411,-2.6821 -45.6022,-4.3138 -72.6192,-4.4531 z m -21.0742,84.8496 c 6.2471,-0.1514 11.9035,1.0627 15.1426,3.6856 5.1207,4.1465 5.6055,11.6896 1.6777,26.0937 -4.2839,15.7104 -92.6766,257.5426 -98.9062,270.5957 -6.7484,14.1398 -14.4735,21.666 -25.332,24.6817 -14.45205,4.0137 -27.42154,0.8485 -29.43754,-7.1836 -0.68425,-2.7252 -0.72838,-9.3113 -0.0977,-14.6368 1.53128,-12.9293 90.69544,-258.2308 101.19924,-278.4121 7.0428,-13.5312 9.547,-16.5126 17.0645,-20.3183 5.6045,-2.8373 12.4424,-4.3544 18.6894,-4.5059 z"
       transform="scale(0.26458333)"
       id="path1614"
       inkscape:connector-curvature="0" />
    <path
       style="fill:#000000;stroke-width:0.52448606"
       d="m 377.61255,549.33763 c -15.63499,-1.25078 -27.64488,-5.10103 -33.27791,-10.66862 -4.32329,-4.273 -5.51365,-9.04751 -4.24432,-17.02388 0.68551,-4.30753 4.29546,-15.84345 5.58187,-17.83745 l 0.76491,-1.18565 22.66828,0.13674 22.66831,0.13673 -0.0637,1.31122 c -0.0351,0.72117 -1.06342,4.14344 -2.28524,7.60505 -1.37982,3.90929 -2.32473,7.61405 -2.49404,9.77846 -0.26445,3.38036 -0.22794,3.51374 1.21965,4.45812 1.1439,0.74626 2.41435,0.96105 5.44248,0.92013 6.46716,-0.0875 9.4152,-2.19456 12.34792,-8.82603 1.77787,-4.01997 3.01794,-9.48556 2.59212,-11.42434 -0.46542,-2.1191 -2.51812,-3.35535 -19.48791,-11.73663 -15.14644,-7.48073 -22.17375,-11.75406 -25.80203,-15.69031 -3.31534,-3.59671 -3.92951,-5.40748 -3.9129,-11.53623 0.0119,-4.63674 0.23754,-5.90504 1.94077,-10.9388 3.44242,-10.17399 8.70075,-18.94792 14.32648,-23.90504 9.89512,-8.71894 27.80969,-13.9065 50.26802,-14.55616 27.23549,-0.78786 44.98589,4.82076 50.42209,15.93193 1.2206,2.49491 1.3519,3.26251 1.0908,6.37701 -0.2778,3.31476 -3.5269,14.0942 -5.557,18.43704 l -0.8581,1.83571 -22.9423,0.13657 c -26.50947,0.15789 -23.96936,0.885 -21.38587,-6.1218 2.12647,-5.76722 3.29397,-10.47159 2.94437,-11.86426 -0.7307,-2.91153 -8.28961,-3.19046 -12.7059,-0.46887 -2.03735,1.25557 -2.88084,2.24792 -4.21685,4.96127 -1.905,3.86881 -3.12095,9.07464 -2.60237,11.14101 0.91078,3.62868 7.58429,7.64032 26.71412,16.05861 14.4469,6.3575 21.0021,11.30719 22.6972,17.13824 1.8144,6.24121 -0.2898,15.99162 -5.8376,27.05055 -3.112,6.20324 -4.8781,8.79065 -8.851,12.96682 -8.2704,8.69346 -21.33311,14.26286 -38.88876,16.58065 -7.2978,0.9635 -21.38815,1.37328 -28.27558,0.82229 z"
       id="path1610"
       inkscape:connector-curvature="0" />
    <path
       style="fill:#000000;stroke-width:0.52448606"
       d="m -201.98272,547.04199 c -0.2847,-0.74191 5.74594,-17.94918 6.68884,-19.0853 0.44053,-0.53081 6.06994,-0.6727 26.68741,-0.6727 14.37103,0 26.23776,0.17701 26.37054,0.39336 0.34117,0.5559 -6.47908,19.1925 -7.19484,19.66019 -0.32434,0.21195 -12.22103,0.38896 -26.4371,0.39338 -21.01737,0.006 -25.89738,-0.12226 -26.11485,-0.68893 z"
       id="path1608"
       inkscape:connector-curvature="0" />
    <path
       style="fill:#000000;stroke-width:0.52448606"
       d="m -107.49651,547.28015 c -0.15595,-0.25234 1.30741,-4.79569 3.25192,-10.09636 l 3.53546,-9.63757 26.61284,-0.13584 c 21.11461,-0.10777 26.61347,5.3e-4 26.61589,0.52448 0.004,0.91082 -6.33414,18.33733 -6.9647,19.14854 -0.39555,0.5089 -6.35686,0.65562 -26.63873,0.65562 -14.37102,0 -26.25673,-0.20646 -26.41268,-0.4588 z"
       id="path1606"
       inkscape:connector-curvature="0" />
    <path
       style="fill:#000000;stroke-width:0.52448606"
       d="m 466.277,547.25705 c -0.2755,-0.44586 5.3414,-16.70358 6.5534,-18.96827 0.5189,-0.96946 1.4582,-1.00479 26.7127,-1.00479 14.8447,0 26.3005,0.20327 26.4651,0.46959 0.2515,0.40686 -4.0476,12.93567 -6.235,18.17098 l -0.7581,1.81437 h -26.2202 c -15.3688,0 -26.3433,-0.19943 -26.5179,-0.48189 z"
       id="path1604"
       inkscape:connector-curvature="0" />
    <path
       style="fill:#000000;stroke-width:0.52448606"
       d="m 560.7473,547.34555 c -0.2913,-0.48756 6.2029,-18.32466 7.0381,-19.33106 0.9131,-1.10023 52.2977,-1.08801 52.72,0.0119 0.2487,0.64797 -1.5594,6.08502 -5.5524,16.6961 l -1.1348,3.01579 h -26.4179 c -14.5299,0 -26.5237,-0.17702 -26.653,-0.39337 z"
       id="path1602"
       inkscape:connector-curvature="0" />
    <path
       style="fill:#000000;stroke-width:0.52448606"
       d="m 655.3279,547.22598 c 0,-1.24714 6.8035,-19.08531 7.4308,-19.48297 0.899,-0.56991 51.3528,-0.58326 52.2503,-0.0134 0.5227,0.33159 -0.045,2.42616 -2.4965,9.21466 -1.7451,4.83204 -3.4149,9.23769 -3.7106,9.79032 -0.519,0.96971 -1.4625,1.00482 -27.0059,1.00482 -16.8996,0 -26.4681,-0.18544 -26.4681,-0.51297 z"
       id="path1600"
       inkscape:connector-curvature="0" />
    <path
       style="fill:#000000;stroke-width:0.52448606"
       d="m 122.56808,546.30137 c 0.40551,-1.54038 45.07865,-124.1087 45.59396,-125.09468 0.44733,-0.85592 2.28825,-0.91785 27.27867,-0.91785 h 26.79896 l -0.31345,1.70457 c -0.17241,0.93752 -10.41649,29.43678 -22.76467,63.3317 l -22.45125,61.62711 -27.19255,0.13585 c -25.73105,0.12852 -27.17948,0.0863 -26.94967,-0.78673 z"
       id="path1598"
       inkscape:connector-curvature="0" />
    <path
       style="fill:#000000;stroke-width:0.52448606"
       d="m 268.26616,412.56397 c 0.006,-0.51105 1.60473,-5.29551 3.55508,-10.63217 l 3.54605,-9.70298 18.86675,0.0104 c 19.00901,0.0104 21.66133,0.23102 24.08409,2.00258 2.7322,1.99786 -0.033,6.68482 -4.37718,7.41875 -2.48828,0.42038 -2.77429,1.05018 -0.712,1.56778 3.13468,0.78678 3.41413,2.02562 1.54538,6.85203 l -1.21108,3.12791 -9.27864,0.14315 c -10.50923,0.16224 -9.98961,0.42753 -8.22992,-4.20235 0.57676,-1.51755 1.04881,-3.16772 1.04899,-3.66705 0,-1.0274 -1.73873,-1.6215 -3.98732,-1.36215 -1.35401,0.15617 -1.64277,0.58401 -3.12552,4.6302 l -1.63359,4.45814 -10.05007,0.14241 c -9.32484,0.13211 -10.04935,0.0754 -10.04102,-0.78673 z"
       id="path1596"
       inkscape:connector-curvature="0" />
    <path
       style="fill:#000000;stroke-width:0.52448606"
       d="m 299.20188,399.30937 c 1.2578,-1.2578 1.36607,-2.91299 0.21931,-3.35304 -0.45627,-0.17511 -1.64838,-0.31835 -2.64914,-0.31835 -1.58056,0 -1.91942,0.23892 -2.57953,1.81885 -1.1168,2.67277 -0.99062,2.90152 1.6002,2.90152 1.66087,0 2.671,-0.31081 3.40916,-1.04898 z"
       id="path1594"
       inkscape:connector-curvature="0" />
    <path
       style="fill:#000000;stroke-width:0.52448606"
       d="m 357.42881,412.56397 c 0.006,-0.51105 1.60409,-5.29551 3.5536,-10.63217 l 3.54467,-9.70298 10.08298,-0.14241 c 7.49581,-0.10584 10.08304,0.0169 10.08304,0.47839 0,0.34146 -0.39624,1.87781 -0.88049,3.41413 -0.48426,1.5363 -0.73906,2.93473 -0.5662,3.10763 0.17293,0.17288 2.73179,-1.35838 5.68645,-3.4028 l 5.37197,-3.71714 h 8.87446 c 6.81588,0 8.82433,0.15047 8.65828,0.64866 -0.11882,0.35677 -2.91179,2.35526 -6.20638,4.4411 -3.29462,2.08583 -6.19877,4.11247 -6.45361,4.50362 -0.32385,0.49702 0.59383,2.17244 3.04736,5.56357 1.93096,2.66879 3.64178,5.19373 3.80191,5.61096 0.24902,0.64899 -1.21428,0.73802 -10.12799,0.61618 l -10.41903,-0.14241 -1.92915,-3.67141 c -1.06103,-2.01926 -2.2302,-3.67139 -2.59818,-3.67139 -0.36799,0 -1.29704,1.65213 -2.0645,3.67139 l -1.39541,3.67141 -10.03636,0.14241 c -9.31182,0.13211 -10.03578,0.0754 -10.02742,-0.78673 z"
       id="path1592"
       inkscape:connector-curvature="0" />
    <path
       style="fill:#000000;stroke-width:0.52448606"
       d="m 442.3866,412.80048 c 0,-1.48119 1.8948,-3.07371 10.9829,-9.23073 5.2195,-3.53615 9.354,-6.6494 9.1878,-6.91832 -0.1662,-0.26894 -2.8844,-0.48897 -6.0406,-0.48897 -6.2091,0 -6.3874,-0.0994 -5.1297,-2.86 l 0.6087,-1.33589 h 17.7483 c 9.7616,0 17.7484,0.20079 17.7484,0.44622 0,0.24542 -0.2656,1.20821 -0.5903,2.13952 -0.486,1.39422 -2.1999,2.74769 -9.703,7.66277 -5.012,3.2832 -9.1127,6.21473 -9.1127,6.5145 0,0.34662 2.2799,0.54504 6.2629,0.54504 3.4446,0 6.3919,0.20889 6.5498,0.46423 0.1578,0.25534 0.03,1.1994 -0.2826,2.09795 l -0.5696,1.6337 h -18.8301 c -14.9307,0 -18.8302,-0.13882 -18.8302,-0.67002 z"
       id="path1590"
       inkscape:connector-curvature="0" />
    <path
       style="fill:#000000;stroke-width:0.52448606"
       d="m 171.57463,412.5574 c -0.31305,-0.50893 6.10161,-18.20261 6.98511,-19.26717 0.57788,-0.69631 4.02209,-0.79918 26.75914,-0.79918 20.24957,0 26.21237,0.14689 26.61605,0.65561 0.3634,0.45801 -0.52732,3.50121 -2.95505,10.09637 l -3.47525,9.44075 -26.84256,0.13584 c -14.76341,0.0748 -26.95274,-0.0433 -27.08744,-0.26224 z"
       id="path1588"
       inkscape:connector-curvature="0" />
    <path
       style="fill:#000000;stroke-width:0.52448606"
       d="m 609.9862,412.4641 c -0.2755,-0.44586 5.3414,-16.70358 6.5534,-18.96827 0.5189,-0.96948 1.4582,-1.00481 26.7127,-1.00481 15.3413,0 26.2981,0.19945 26.4727,0.48189 0.2755,0.44585 -5.3414,16.70357 -6.5534,18.96828 -0.5188,0.96945 -1.4582,1.00479 -26.7127,1.00479 -15.3413,0 -26.2981,-0.19945 -26.4727,-0.48188 z"
       id="path1586"
       inkscape:connector-curvature="0" />
    <path
       style="fill:#000000;stroke-width:0.52448606"
       d="m 704.6296,412.07991 c 0,-1.13442 6.1618,-18.01106 6.9013,-18.90213 0.4558,-0.54922 5.809,-0.68676 26.73,-0.68676 24.9857,0 26.1602,0.043 26.1602,0.95834 0,0.88919 -3.3119,10.37665 -5.8447,16.74308 l -1.0955,2.75354 h -26.4256 c -24.2157,0 -26.4257,-0.0724 -26.4257,-0.86607 z"
       id="path1584"
       inkscape:connector-curvature="0" />
    <path
       style="fill:#000000;stroke-width:0.52448606"
       d="m -152.90516,411.5561 c 0,-1.10904 6.20106,-18.05393 6.92895,-18.93391 0.42048,-0.50831 6.36404,-0.6556 26.4566,-0.6556 22.49175,0 25.95397,0.1033 26.21465,0.7827 0.1652,0.43048 -1.22811,4.97383 -3.09623,10.09635 l -3.39658,9.31366 -26.5537,0.13599 c -24.49909,0.12539 -26.55369,0.0682 -26.55369,-0.73913 z"
       id="path1582"
       inkscape:connector-curvature="0" />
    <path
       style="fill:#000000;stroke-width:0.52448606"
       d="m -58.49766,411.93958 c 0,-1.16824 6.88278,-19.16532 7.47283,-19.53997 0.88873,-0.56428 51.3462303,-0.5346 52.2382703,0.0308 0.56273,0.35662 0.0378,2.30205 -2.58053,9.56384 -1.80783,5.01389 -3.51172,9.41118 -3.78644,9.77175 -0.38793,0.50921 -6.3999803,0.65562 -26.9218003,0.65562 -15.71096,-1e-5 -26.42233,-0.1954 -26.42233,-0.48198 z"
       id="path1580"
       inkscape:connector-curvature="0" />
    <path
       style="fill:#000000;stroke-width:0.52448606"
       d="m 515.2871,411.77075 c -0.01,-1.40239 6.4815,-18.52784 7.2544,-19.14856 0.6281,-0.50433 6.7086,-0.6556 26.3518,-0.6556 19.8012,0 25.6521,0.14718 26.0555,0.6556 0.3634,0.45799 -0.5272,3.50122 -2.955,10.09636 l -3.4753,9.44075 -26.6141,0.13599 c -21.1157,0.10777 -26.6149,-5.1e-4 -26.6173,-0.52448 z"
       id="path1500-0"
       inkscape:connector-curvature="0" />
    <path
       inkscape:connector-curvature="0"
       style="fill:#ffffff;fill-opacity:1;stroke-width:0.52448606"
       d="m 15.731011,634.396 c -20.23751,0 -25.50498,0.13886 -25.95758,0.68422 -0.82705,0.99652 -56.1579,153.16633 -55.86533,153.6397 0.13567,0.21953 11.16601,0.39947 24.5122,0.39947 h 24.26622 l 2.98586,-4.17132 c 1.64243,-2.29401 3.19622,-4.30045 3.45302,-4.45915 0.25678,-0.1587 1.73743,0.95081 3.28973,2.46599 4.64258,4.53163 10.86617,7.28827 18.67741,8.27236 1.9298,0.2431 5.85836,0.32615 8.7302,0.1845 9.78707,-0.48292 17.24877,-2.47767 25.46049,-6.80736 8.75382,-4.6155 13.01845,-9.23928 17.84747,-19.34919 2.18387,-4.57216 24.5737,-65.27959 29.40285,-79.72227 3.19733,-9.56233 2.15953,-15.52348 -3.44009,-19.75797 -5.27788,-3.99116 -15.20727,-6.03488 -26.76374,-5.50871 -10.16767,0.46294 -18.18727,2.6638 -27.6629,7.59177 -2.52211,1.31167 -4.70773,2.26293 -4.85656,2.1141 -0.14883,-0.1488 2.47846,-7.84085 5.8384,-17.09354 3.35995,-9.25266 5.96601,-17.19619 5.79086,-17.65265 -0.2844,-0.74118 -3.0358,-0.82995 -25.70851,-0.82995 z m 17.1204,48.20844 c 2.36635,0.0296 4.45817,0.8088 5.16919,2.36937 1.06222,2.33124 -0.39444,7.09186 -11.72485,38.32219 -14.53262,40.05673 -15.69643,42.71235 -19.51509,44.52443 -4.48389,2.12773 -9.87272,1.3077 -10.60917,-1.61438 -0.62814,-2.49224 1.29609,-8.48686 13.18369,-41.07397 11.69692,-32.06441 13.94273,-37.64889 16.00315,-39.78775 1.77657,-1.8442 4.81123,-2.77342 7.49308,-2.73989 z"
       id="path1618-1"
       inkscape:export-xdpi="7.8869491"
       inkscape:export-ydpi="7.8869491" />
    <path
       inkscape:connector-curvature="0"
       style="fill:#ffffff;fill-opacity:1;stroke-width:0.52448606"
       d="m 248.80464,660.18669 c -4.28892,-0.0222 -8.30691,0.0978 -11.08458,0.38549 -25.01567,2.59136 -43.85019,12.22113 -54.11351,27.66653 -5.60031,8.42806 -7.14873,11.99068 -17.05684,39.25343 -10.16895,27.98037 -11.36725,32.38365 -11.03861,40.56599 0.17301,4.30787 0.44077,5.58049 1.72239,8.20002 2.88203,5.89066 7.8242,9.45563 16.65634,12.01425 5.48735,1.58967 11.02831,2.44174 19.03709,2.92799 3.46159,0.21016 7.47389,0.41722 8.91624,0.45992 5.768,0.17077 19.58002,-1.05391 25.99791,-2.30528 16.18824,-3.15646 27.81919,-9.07595 37.98943,-19.33422 8.22243,-8.29363 10.77098,-13.47494 22.46942,-45.67576 10.25665,-28.23223 10.47446,-28.98529 10.52907,-36.4572 0.0426,-5.82965 -0.0164,-6.15974 -1.7141,-9.6139 -1.00844,-2.05158 -2.92378,-4.74277 -4.4912,-6.31021 -4.78054,-4.78054 -14.15304,-8.8179 -24.60522,-10.59884 -4.16483,-0.70964 -12.06558,-1.14136 -19.21383,-1.17821 z m -5.57588,22.44979 c 1.65288,-0.0401 3.14947,0.28117 4.00648,0.97514 1.35485,1.0971 1.48312,3.09288 0.44389,6.90396 -1.13345,4.15671 -24.52068,68.14148 -26.16893,71.59512 -1.78552,3.74115 -3.82945,5.73246 -6.70243,6.53036 -3.82378,1.06196 -7.25529,0.2245 -7.78869,-1.90066 -0.18103,-0.72104 -0.19273,-2.46361 -0.0259,-3.87265 0.40515,-3.42088 23.99649,-68.32357 26.77562,-73.6632 1.86341,-3.58013 2.52598,-4.36896 4.51498,-5.37589 1.48286,-0.7507 3.29205,-1.1521 4.9449,-1.19218 z"
       id="path1614-9"
       inkscape:export-xdpi="7.8869491"
       inkscape:export-ydpi="7.8869491" />
    <path
       inkscape:connector-curvature="0"
       style="fill:#ffffff;fill-opacity:1;stroke-width:0.52448606"
       d="m 327.71966,791.24236 c -15.63499,-1.25078 -27.64488,-5.10103 -33.27791,-10.66862 -4.32329,-4.273 -5.51365,-9.04751 -4.24432,-17.02388 0.68551,-4.30753 4.29546,-15.84345 5.58187,-17.83745 l 0.76491,-1.18565 22.66828,0.13674 22.66831,0.13673 -0.0637,1.31122 c -0.0351,0.72117 -1.06344,4.14344 -2.28526,7.60505 -1.3798,3.90929 -2.3247,7.61405 -2.49401,9.77846 -0.26445,3.38036 -0.22797,3.51374 1.21965,4.45812 1.1439,0.74626 2.41435,0.96105 5.44248,0.92013 6.46716,-0.0875 9.4152,-2.19456 12.34792,-8.82603 1.77787,-4.01997 3.01791,-9.48556 2.59212,-11.42434 -0.46543,-2.1191 -2.51815,-3.35535 -19.48791,-11.73663 -15.14644,-7.48073 -22.17375,-11.75406 -25.80204,-15.69031 -3.31533,-3.59671 -3.92951,-5.40748 -3.91289,-11.53623 0.0119,-4.63674 0.23751,-5.90504 1.94077,-10.9388 3.44241,-10.17399 8.70074,-18.94792 14.32647,-23.90504 9.89513,-8.71894 27.8097,-13.9065 50.268,-14.55616 27.2355,-0.78786 44.98592,4.82076 50.4221,15.93193 1.2206,2.49491 1.35192,3.26251 1.0908,6.37701 -0.27779,3.31476 -3.5269,14.0942 -5.55699,18.43704 l -0.8581,1.83571 -22.94231,0.13657 c -26.50945,0.15789 -23.96935,0.885 -21.38588,-6.1218 2.12649,-5.76722 3.29399,-10.47159 2.94439,-11.86426 -0.7307,-2.91153 -8.2896,-3.19046 -12.7059,-0.46887 -2.03734,1.25557 -2.88083,2.24792 -4.21685,4.96127 -1.905,3.86881 -3.12094,9.07464 -2.60238,11.14101 0.9108,3.62868 7.5843,7.64032 26.71413,16.05861 14.44691,6.3575 21.00209,11.30719 22.6972,17.13824 1.81441,6.24121 -0.2898,15.99162 -5.83761,27.05055 -3.112,6.20324 -4.87809,8.79065 -8.851,12.96682 -8.2704,8.69346 -21.33311,14.26286 -38.88875,16.58065 -7.29782,0.9635 -21.38815,1.37328 -28.2756,0.82229 z"
       id="path1610-4"
       inkscape:export-xdpi="7.8869491"
       inkscape:export-ydpi="7.8869491" />
    <path
       inkscape:connector-curvature="0"
       style="fill:#ffffff;fill-opacity:1;stroke-width:0.52448606"
       d="m -251.87561,788.94672 c -0.2847,-0.74191 5.74594,-17.94918 6.68884,-19.0853 0.44053,-0.53081 6.06994,-0.6727 26.68741,-0.6727 14.37103,0 26.23776,0.17701 26.37054,0.39336 0.34117,0.5559 -6.47908,19.1925 -7.19484,19.66019 -0.32434,0.21195 -12.22103,0.38896 -26.4371,0.39338 -21.01737,0.006 -25.89738,-0.12226 -26.11485,-0.68893 z"
       id="path1608-7"
       inkscape:export-xdpi="7.8869491"
       inkscape:export-ydpi="7.8869491" />
    <path
       inkscape:connector-curvature="0"
       style="fill:#ffffff;fill-opacity:1;stroke-width:0.52448606"
       d="m -157.3894,789.18488 c -0.15595,-0.25234 1.30741,-4.79569 3.25192,-10.09636 l 3.53546,-9.63757 26.61284,-0.13584 c 21.11461,-0.10777 26.613471,5.3e-4 26.615891,0.52448 0.004,0.91082 -6.334141,18.33733 -6.964701,19.14854 -0.39555,0.5089 -6.35686,0.65562 -26.63873,0.65562 -14.37102,0 -26.25672,-0.20646 -26.41268,-0.4588 z"
       id="path1606-8"
       inkscape:export-xdpi="7.8869491"
       inkscape:export-ydpi="7.8869491" />
    <path
       inkscape:connector-curvature="0"
       style="fill:#ffffff;fill-opacity:1;stroke-width:0.52448606"
       d="m 416.38411,789.16178 c -0.27549,-0.44586 5.3414,-16.70358 6.55341,-18.96827 0.5189,-0.96946 1.4582,-1.00479 26.7127,-1.00479 14.84469,0 26.30051,0.20327 26.46511,0.46959 0.25148,0.40686 -4.04762,12.93567 -6.23501,18.17098 l -0.75809,1.81437 h -26.22021 c -15.3688,0 -26.34329,-0.19943 -26.51791,-0.48189 z"
       id="path1604-4"
       inkscape:export-xdpi="7.8869491"
       inkscape:export-ydpi="7.8869491" />
    <path
       inkscape:connector-curvature="0"
       style="fill:#ffffff;fill-opacity:1;stroke-width:0.52448606"
       d="m 510.85443,789.25028 c -0.2913,-0.48756 6.20289,-18.32466 7.03805,-19.33106 0.9131,-1.10023 52.2977,-1.08801 52.72,0.0119 0.2487,0.64797 -1.5594,6.08502 -5.5524,16.6961 l -1.1348,3.01579 h -26.4179 c -14.5299,0 -26.52367,-0.17702 -26.65295,-0.39337 z"
       id="path1602-5"
       inkscape:export-xdpi="7.8869491"
       inkscape:export-ydpi="7.8869491" />
    <path
       inkscape:connector-curvature="0"
       style="fill:#ffffff;fill-opacity:1;stroke-width:0.52448606"
       d="m 605.43498,789.13071 c 0,-1.24714 6.8036,-19.08531 7.4309,-19.48297 0.8989,-0.56991 51.3528,-0.58326 52.2502,-0.0134 0.5228,0.33159 -0.045,2.42616 -2.4965,9.21466 -1.745,4.83204 -3.4149,9.23769 -3.7106,9.79032 -0.519,0.96971 -1.4625,1.00482 -27.0058,1.00482 -16.8996,0 -26.4682,-0.18544 -26.4682,-0.51297 z"
       id="path1600-0"
       inkscape:export-xdpi="7.8869491"
       inkscape:export-ydpi="7.8869491" />
    <path
       inkscape:connector-curvature="0"
       style="fill:#ffffff;fill-opacity:1;stroke-width:0.52448606"
       d="m 72.675191,788.2061 c 0.40551,-1.54038 45.078649,-124.1087 45.593959,-125.09468 0.44733,-0.85592 2.28825,-0.91785 27.27867,-0.91785 h 26.79896 l -0.31345,1.70457 c -0.17241,0.93752 -10.41649,29.43678 -22.76467,63.3317 l -22.45125,61.62711 -27.192549,0.13585 c -25.73105,0.12852 -27.17948,0.0863 -26.94967,-0.78673 z"
       id="path1598-3"
       inkscape:export-xdpi="7.8869491"
       inkscape:export-ydpi="7.8869491" />
    <path
       inkscape:connector-curvature="0"
       style="fill:#ffffff;fill-opacity:1;stroke-width:0.52448606"
       d="m 218.37327,654.4687 c 0.006,-0.51105 1.60473,-5.29551 3.55508,-10.63217 l 3.54605,-9.70298 18.86675,0.0104 c 19.00901,0.0104 21.66133,0.23102 24.08409,2.00258 2.7322,1.99786 -0.033,6.68482 -4.37718,7.41875 -2.48828,0.42038 -2.77429,1.05018 -0.712,1.56778 3.13468,0.78678 3.41413,2.02562 1.54538,6.85203 l -1.21108,3.12791 -9.27864,0.14315 c -10.50923,0.16224 -9.98961,0.42753 -8.22992,-4.20235 0.57676,-1.51755 1.04881,-3.16772 1.04899,-3.66705 0,-1.0274 -1.73873,-1.6215 -3.98732,-1.36215 -1.35401,0.15617 -1.64277,0.58401 -3.12552,4.6302 l -1.63359,4.45814 -10.05007,0.14241 c -9.32484,0.13211 -10.04935,0.0754 -10.04102,-0.78673 z"
       id="path1596-6"
       inkscape:export-xdpi="7.8869491"
       inkscape:export-ydpi="7.8869491" />
    <path
       inkscape:connector-curvature="0"
       style="fill:#ffffff;fill-opacity:1;stroke-width:0.52448606"
       d="m 249.30899,641.2141 c 1.2578,-1.2578 1.36607,-2.91299 0.21931,-3.35304 -0.45627,-0.17511 -1.64838,-0.31835 -2.64914,-0.31835 -1.58056,0 -1.91942,0.23892 -2.57953,1.81885 -1.1168,2.67277 -0.99062,2.90152 1.6002,2.90152 1.66087,0 2.671,-0.31081 3.40916,-1.04898 z"
       id="path1594-1"
       inkscape:export-xdpi="7.8869491"
       inkscape:export-ydpi="7.8869491" />
    <path
       inkscape:connector-curvature="0"
       style="fill:#ffffff;fill-opacity:1;stroke-width:0.52448606"
       d="m 307.53592,654.4687 c 0.006,-0.51105 1.60409,-5.29551 3.5536,-10.63217 l 3.54467,-9.70298 10.08298,-0.14241 c 7.49581,-0.10584 10.08304,0.0169 10.08304,0.47839 0,0.34146 -0.39624,1.87781 -0.88049,3.41413 -0.48426,1.5363 -0.73906,2.93473 -0.5662,3.10763 0.17293,0.17288 2.73179,-1.35838 5.68645,-3.4028 l 5.37197,-3.71714 h 8.87446 c 6.81588,0 8.82433,0.15047 8.65828,0.64866 -0.11882,0.35677 -2.91179,2.35526 -6.20638,4.4411 -3.29462,2.08583 -6.19877,4.11247 -6.45361,4.50362 -0.32385,0.49702 0.59383,2.17244 3.04736,5.56357 1.93096,2.66879 3.64178,5.19373 3.80191,5.61096 0.24902,0.64899 -1.21428,0.73802 -10.12799,0.61618 l -10.41903,-0.14241 -1.92915,-3.67141 c -1.06103,-2.01926 -2.2302,-3.67139 -2.59818,-3.67139 -0.36799,0 -1.29704,1.65213 -2.0645,3.67139 l -1.39541,3.67141 -10.03636,0.14241 c -9.31182,0.13211 -10.03578,0.0754 -10.02742,-0.78673 z"
       id="path1592-0"
       inkscape:export-xdpi="7.8869491"
       inkscape:export-ydpi="7.8869491" />
    <path
       inkscape:connector-curvature="0"
       style="fill:#ffffff;fill-opacity:1;stroke-width:0.52448606"
       d="m 392.49371,654.70521 c 0,-1.48119 1.89482,-3.07371 10.98291,-9.23073 5.21949,-3.53615 9.354,-6.6494 9.18779,-6.91832 -0.16619,-0.26894 -2.88438,-0.48897 -6.0406,-0.48897 -6.20908,0 -6.38738,-0.0994 -5.12969,-2.86 l 0.6087,-1.33589 h 17.74831 c 9.76159,0 17.74838,0.20079 17.74838,0.44622 0,0.24542 -0.26559,1.20821 -0.59029,2.13952 -0.48601,1.39422 -2.1999,2.74769 -9.70301,7.66277 -5.012,3.2832 -9.1127,6.21473 -9.1127,6.5145 0,0.34662 2.27992,0.54504 6.2629,0.54504 3.44461,0 6.39191,0.20889 6.54981,0.46423 0.1578,0.25534 0.03,1.1994 -0.2826,2.09795 l -0.56959,1.6337 h -18.83011 c -14.9307,0 -18.83021,-0.13882 -18.83021,-0.67002 z"
       id="path1590-6"
       inkscape:export-xdpi="7.8869491"
       inkscape:export-ydpi="7.8869491" />
    <path
       inkscape:connector-curvature="0"
       style="fill:#ffffff;fill-opacity:1;stroke-width:0.52448606"
       d="m 121.68174,654.46213 c -0.31305,-0.50893 6.10161,-18.20261 6.98511,-19.26717 0.57788,-0.69631 4.02209,-0.79918 26.75914,-0.79918 20.24957,0 26.21237,0.14689 26.61605,0.65561 0.3634,0.45801 -0.52732,3.50121 -2.95505,10.09637 l -3.47525,9.44075 -26.84256,0.13584 c -14.76341,0.0748 -26.95274,-0.0433 -27.08744,-0.26224 z"
       id="path1588-3"
       inkscape:export-xdpi="7.8869491"
       inkscape:export-ydpi="7.8869491" />
    <path
       inkscape:connector-curvature="0"
       style="fill:#ffffff;fill-opacity:1;stroke-width:0.52448606"
       d="m 560.09328,654.36883 c -0.2754,-0.44586 5.3414,-16.70358 6.5534,-18.96827 0.5189,-0.96948 1.4582,-1.00481 26.7128,-1.00481 15.3412,0 26.2981,0.19945 26.4727,0.48189 0.2754,0.44585 -5.3415,16.70357 -6.5535,18.96828 -0.5188,0.96945 -1.4582,1.00479 -26.7127,1.00479 -15.3412,0 -26.2981,-0.19945 -26.4727,-0.48188 z"
       id="path1586-2"
       inkscape:export-xdpi="7.8869491"
       inkscape:export-ydpi="7.8869491" />
    <path
       inkscape:connector-curvature="0"
       style="fill:#ffffff;fill-opacity:1;stroke-width:0.52448606"
       d="m 654.73678,653.98464 c 0,-1.13442 6.1618,-18.01106 6.9012,-18.90213 0.4558,-0.54922 5.809,-0.68676 26.73,-0.68676 24.9857,0 26.1602,0.043 26.1602,0.95834 0,0.88919 -3.3118,10.37665 -5.8447,16.74308 l -1.0955,2.75354 h -26.4256 c -24.2157,0 -26.4256,-0.0724 -26.4256,-0.86607 z"
       id="path1584-0"
       inkscape:export-xdpi="7.8869491"
       inkscape:export-ydpi="7.8869491" />
    <path
       inkscape:connector-curvature="0"
       style="fill:#ffffff;fill-opacity:1;stroke-width:0.52448606"
       d="m -202.79805,653.46083 c 0,-1.10904 6.20106,-18.05393 6.92895,-18.93391 0.42048,-0.50831 6.36404,-0.6556 26.4566,-0.6556 22.49175,0 25.95397,0.1033 26.21465,0.7827 0.1652,0.43048 -1.22811,4.97383 -3.09623,10.09635 l -3.39658,9.31366 -26.5537,0.13599 c -24.49909,0.12539 -26.55369,0.0682 -26.55369,-0.73913 z"
       id="path1582-6"
       inkscape:export-xdpi="7.8869491"
       inkscape:export-ydpi="7.8869491" />
    <path
       inkscape:connector-curvature="0"
       style="fill:#ffffff;fill-opacity:1;stroke-width:0.52448606"
       d="m -108.39055,653.84431 c 0,-1.16824 6.88278,-19.16532 7.47283,-19.53997 0.88873,-0.56428 51.346231,-0.5346 52.238271,0.0308 0.56273,0.35662 0.0378,2.30205 -2.58053,9.56384 -1.80783,5.01389 -3.51172,9.41118 -3.78644,9.77175 -0.38793,0.50921 -6.39998,0.65562 -26.9218,0.65562 -15.71096,-1e-5 -26.422331,-0.1954 -26.422331,-0.48198 z"
       id="path1580-1"
       inkscape:export-xdpi="7.8869491"
       inkscape:export-ydpi="7.8869491" />
    <path
       inkscape:connector-curvature="0"
       style="fill:#ffffff;fill-opacity:1;stroke-width:0.52448606"
       d="m 465.39423,653.67548 c -0.0101,-1.40239 6.48149,-18.52784 7.25439,-19.14856 0.6281,-0.50433 6.70859,-0.6556 26.35179,-0.6556 19.80117,0 25.65217,0.14718 26.05547,0.6556 0.3634,0.45799 -0.5272,3.50122 -2.955,10.09636 l -3.4753,9.44075 -26.61406,0.13599 c -21.11571,0.10777 -26.61491,-5e-4 -26.61729,-0.52448 z"
       id="path1500-0-5"
       inkscape:export-xdpi="7.8869491"
       inkscape:export-ydpi="7.8869491" />
  </g>
</svg>
